<svg width="19" height="19" version="1.1" xmlns="http://www.w3.org/2000/svg" desc="Created with imagetracer.js version 1.2.6" ><path fill="rgb(63,43,36)" stroke="rgb(63,43,36)" stroke-width="1" opacity="1" d="M 1.5 1 L 8.5 6 L 10.5 6 L 17.5 1 Q 20 2 19 6.5 L 17 12.5 L 18 15.5 L 16.5 17 Q 13.6 19.6 7.5 19 L 1 15.5 L 2 12.5 L 0 2.5 L 1.5 1 Z M 1 2 L 3 11 L 5 8 L 4 6 Q 0 4 3 3 L 1 2 Z M 17 2 L 17 4 L 14 8 L 17 11 L 18 7 Q 20 1 17 2 Z M 4 3 L 6 8 L 3 13 L 2 16 L 8 18 Q 14 19 17 16 L 17 14 L 13 8 L 14 6 L 16 3 L 11 7 L 9 7 L 4 3 Z " /><path fill="rgb(63,43,36)" stroke="rgb(63,43,36)" stroke-width="1" opacity="1" d="M 6.5 11 L 7 13 L 5 12.5 L 6.5 11 Z " /><path fill="rgb(63,43,36)" stroke="rgb(63,43,36)" stroke-width="1" opacity="1" d="M 12.5 11 L 13.5 13 Q 10.7 13.7 12.5 11 Z " /><path fill="rgb(0,0,0)" stroke="rgb(0,0,0)" stroke-width="1" opacity="0" d="M 0 0 L 18.5 0 L 19 1.5 L 17.5 1 L 10.5 6 L 8.5 6 L 1.5 1 L 0 1.5 L 0 0 Z " /><path fill="rgb(0,0,0)" stroke="rgb(0,0,0)" stroke-width="1" opacity="0" d="M 0.5 7 L 2 12.5 L 1 15.5 L 2.5 17 L 7 18.5 L 0 19 L 0.5 7 Z " /><path fill="rgb(0,0,0)" stroke="rgb(0,0,0)" stroke-width="1" opacity="0" d="M 18.5 7 L 19 19 L 12 18.5 L 18 15.5 L 17 12.5 L 18.5 7 Z " /><path fill="rgb(218,179,164)" stroke="rgb(218,179,164)" stroke-width="1" opacity="1" d="M 1.5 3 L 5 7.5 L 3 6.5 L 1.5 3 Z " /><path fill="rgb(218,179,164)" stroke="rgb(218,179,164)" stroke-width="1" opacity="1" d="M 17.5 3 L 16 5.5 L 14.5 8 L 15 6.5 L 17.5 3 Z " /><path fill="rgb(218,179,164)" stroke="rgb(218,179,164)" stroke-width="1" opacity="1" d="M 12.5 16 L 15 16.5 L 7.5 18 L 7.5 17 L 12.5 16 Z " /><path fill="rgb(241,203,190)" stroke="rgb(241,203,190)" stroke-width="1" opacity="1" d="M 1.5 4 L 4 8.5 L 2.5 11 L 1.5 4 Z " /><path fill="rgb(241,203,190)" stroke="rgb(241,203,190)" stroke-width="1" opacity="1" d="M 17.5 4 L 18 6.5 L 16.5 11 L 15 7.5 L 17.5 4 Z " /><path fill="rgb(241,203,190)" stroke="rgb(241,203,190)" stroke-width="1" opacity="1" d="M 8.5 14 L 11.5 15 L 14 15.5 Q 11.3 18.3 4.5 17 L 5.5 15 L 8.5 14 Z " /><path fill="rgb(199,106,37)" stroke="rgb(199,106,37)" stroke-width="1" opacity="1" d="M 4.5 3 L 7.5 7 L 4.5 3 Z " /><path fill="rgb(199,106,37)" stroke="rgb(199,106,37)" stroke-width="1" opacity="1" d="M 14.5 3 L 11.5 8 L 14 9.5 L 16 13.5 L 15.5 16 L 8.5 14 L 3.5 16 L 4 12.5 L 5 9 Q 11.3 8 14.5 3 Z M 7 11 L 5 13 L 7 13 L 7 11 Z M 13 11 Q 11 14 14 13 L 13 11 Z " /><path fill="rgb(157,86,30)" stroke="rgb(157,86,30)" stroke-width="1" opacity="1" d="M 3.5 3 L 6.5 7 Q 4.3 7.8 5 5.5 L 3.5 3 Z " /><path fill="rgb(157,86,30)" stroke="rgb(157,86,30)" stroke-width="1" opacity="1" d="M 15.5 3 L 14 5.5 L 13 7.5 L 17 13.5 L 16.5 16 L 15 12.5 L 12.5 8 L 11 7.5 L 15.5 3 Z " /><path fill="rgb(212,123,55)" stroke="rgb(212,123,55)" stroke-width="1" opacity="1" d="M 6.5 7 L 9 7.5 L 5 9 L 3 13.5 Q 5.2 14.8 2.5 16 L 3 12.5 L 6.5 7 Z " /></svg>